<?xml version="1.0" standalone="no"?>
<!DOCTYPE svg PUBLIC "-//W3C//DTD SVG 20010904//EN"
 "http://www.w3.org/TR/2001/REC-SVG-20010904/DTD/svg10.dtd">
<svg version="1.0" xmlns="http://www.w3.org/2000/svg"
 width="128.000000pt" height="128.000000pt" viewBox="0 0 128.000000 128.000000"
 preserveAspectRatio="xMidYMid meet">

<g transform="translate(0.000000,128.000000) scale(0.100000,-0.100000)"
fill="#000000" stroke="none">
<path d="M117 1129 c-30 -17 -57 -88 -57 -149 0 -73 29 -122 104 -179 94 -71
114 -124 80 -206 -8 -21 -14 -52 -13 -70 3 -27 -5 -42 -49 -90 -81 -88 -121
-179 -102 -229 8 -22 16 -26 50 -26 40 0 52 14 29 37 -6 6 -9 23 -7 39 2 22
17 37 67 71 36 24 68 43 73 43 4 0 8 -28 8 -63 0 -71 12 -94 73 -138 68 -49
165 -36 109 14 -10 10 -25 17 -33 17 -8 0 -22 14 -31 30 -17 30 -17 30 26 93
40 59 45 62 95 71 70 12 166 -8 156 -32 -15 -40 -35 -140 -35 -179 l0 -43 55
0 c48 0 55 2 55 20 0 13 -9 22 -29 27 l-29 8 30 79 c27 68 35 80 65 93 52 21
67 14 120 -52 27 -32 79 -85 117 -117 66 -55 72 -58 123 -58 46 0 54 3 51 17
-2 10 -17 22 -33 27 -36 11 -115 100 -147 165 -31 63 -32 167 -2 208 17 23 30
29 72 31 52 3 65 11 76 48 5 17 -3 30 -35 60 -23 22 -50 47 -61 57 -10 9 -18
29 -18 43 0 24 -5 22 -77 -43 -43 -39 -88 -75 -100 -82 -30 -15 -102 -14 -152
4 -79 28 -215 48 -317 47 l-102 -1 -6 30 c-9 47 -43 87 -96 114 -26 13 -58 36
-69 51 -36 46 -36 69 -2 122 34 53 38 71 19 90 -15 15 -27 15 -51 1z"/>
</g>
</svg>
